<?xml version="1.0" standalone="no"?><svg xmlns="http://www.w3.org/2000/svg" viewBox="0 0 1440 320"><path fill="#0099ff" fill-opacity="1" d="M0,256L30,224C60,192,120,128,180,101.3C240,75,300,85,360,122.7C420,160,480,224,540,261.3C600,299,660,309,720,272C780,235,840,149,900,106.7C960,64,1020,64,1080,80C1140,96,1200,128,1260,133.3C1320,139,1380,117,1410,106.7L1440,96L1440,0L1410,0C1380,0,1320,0,1260,0C1200,0,1140,0,1080,0C1020,0,960,0,900,0C840,0,780,0,720,0C660,0,600,0,540,0C480,0,420,0,360,0C300,0,240,0,180,0C120,0,60,0,30,0L0,0Z"></path></svg>