<?xml version="1.0" standalone="no"?><svg xmlns="http://www.w3.org/2000/svg" viewBox="0 0 1440 320"><path fill="#0099ff" fill-opacity="1" d="M0,32L30,32C60,32,120,32,180,32C240,32,300,32,360,69.3C420,107,480,181,540,186.7C600,192,660,128,720,101.3C780,75,840,85,900,112C960,139,1020,181,1080,197.3C1140,213,1200,203,1260,213.3C1320,224,1380,256,1410,272L1440,288L1440,320L1410,320C1380,320,1320,320,1260,320C1200,320,1140,320,1080,320C1020,320,960,320,900,320C840,320,780,320,720,320C660,320,600,320,540,320C480,320,420,320,360,320C300,320,240,320,180,320C120,320,60,320,30,320L0,320Z"></path></svg>